<?xml version="1.0" encoding="UTF-8"?><svg xmlns="http://www.w3.org/2000/svg" viewBox="0 0 1920 1080"><defs><style>.e{font-size:157.28px;}.e,.f{font-family:Chiller-Regular, Chiller;}.e,.f,.g{fill:red;}.f{font-size:311.37px;}</style></defs><g id="a"><g><rect x=".5" y=".5" width="1919" height="1079"/><path d="M1919,1V1079H1V1H1919m1-1H0V1080H1920V0h0Z"/></g></g><g id="b"/><g id="c"><g><text class="f" transform="translate(295 465.25)"><tspan x="0" y="0">Project Astral</tspan></text><path class="g" d="M1265.5,442c-.53,4.8-1.05,9.59-1.72,14.38-.64,4.79-.34,9.58-.39,14.38,.05,9.58,.05,19.17,.22,28.75,.18,9.58,.63,19.17,1.26,28.75,.58,9.58,1.2,19.17,5.63,28.75,2.56,5.53,.15,12.08-5.38,14.64-9.33,4.3-18.9-5.45-14.64-14.64,4.43-9.58,5.06-19.17,5.63-28.75,.64-9.58,1.08-19.17,1.26-28.75,.17-9.58,.17-19.17,.22-28.75-.04-4.79,.26-9.58-.39-14.38-.67-4.78-1.19-9.57-1.72-14.38-.51-7.46,10.49-7.52,10,0h0Z"/><path class="g" d="M450.71,448.83c-.55,9.58-1.83,19.17-1.48,28.75,.16,9.58,.13,19.17,.16,28.75,.05,11.98,.41,23.98,1.28,35.94,.54,7.42,1.78,14.73,5.05,21.56,2.74,5.53,.47,12.23-5.06,14.97-9.61,4.72-19.63-5.5-14.97-14.97,4.37-9.04,4.97-18.95,5.5-28.75,1.17-19.16,.66-38.33,.99-57.5,.35-9.58-.93-19.17-1.48-28.75-.16-2.76,1.95-5.13,4.71-5.29,2.96-.19,5.47,2.33,5.29,5.29h0Z"/></g></g><g id="d"><text class="e" transform="translate(642.74 821)"><tspan x="0" y="0">Coming Soon</tspan></text><path class="g" d="M1192.03,782.83c-.53,3.37-1.05,6.73-1.72,10.08-.64,3.36-.34,6.72-.39,10.08,.05,6.72,.05,13.45,.22,20.17,.18,6.72,.63,13.45,1.26,20.17,.58,6.72,1.2,13.45,5.63,20.17,8.23,13.59-10.72,26.15-20.02,13.21-2.72-4.13-2.55-9.32,0-13.21,4.43-6.72,5.06-13.45,5.63-20.17,1.38-13.43,1.45-26.87,1.49-40.34-.04-3.36,.26-6.72-.39-10.08-.29-1.68-.67-3.36-.93-5.04-.28-1.68-.49-3.36-.79-5.04-.49-2.76,1.36-5.4,4.12-5.88,3.4-.67,6.54,2.5,5.88,5.88h0Z"/></g></svg>